<svg width="28" height="28" viewBox="0 0 28 28" fill="none" xmlns="http://www.w3.org/2000/svg">
<path d="M13.9999 24.5001C12.5263 23.2431 11.1605 21.8652 9.91659 20.3806C8.04992 18.1511 5.83325 14.8307 5.83325 11.6667C5.8316 8.3622 7.82154 5.38235 10.8745 4.11769C13.9275 2.85303 17.4417 3.55284 19.7773 5.89056C21.3131 7.4196 22.1735 9.49951 22.1666 11.6667C22.1666 14.8307 19.9499 18.1511 18.0833 20.3806C16.8394 21.8652 15.4735 23.2431 13.9999 24.5001ZM13.9999 5.83339C10.7799 5.83725 8.17044 8.44666 8.16659 11.6667C8.16659 13.0271 8.78142 15.3826 11.7074 18.8837C12.4286 19.7448 13.1938 20.568 13.9999 21.3501C14.8061 20.5689 15.5717 19.7469 16.2936 18.8872C19.2184 15.3814 19.8333 13.0259 19.8333 11.6667C19.8294 8.44666 17.22 5.83725 13.9999 5.83339ZM13.9999 15.1667C12.0669 15.1667 10.4999 13.5997 10.4999 11.6667C10.4999 9.73373 12.0669 8.16673 13.9999 8.16673C15.9329 8.16673 17.4999 9.73373 17.4999 11.6667C17.4999 12.595 17.1312 13.4852 16.4748 14.1416C15.8184 14.798 14.9282 15.1667 13.9999 15.1667Z" fill="#0D0D0D"/>
</svg>
