<svg xmlns="http://www.w3.org/2000/svg">
<!-- ICONS -->
  <defs>
    <symbol id="arrow" viewBox="0 0 33 15">
      <title>Right Arrow</title>
      <path d="M25.6663 14.375L32.5413 7.5L25.6663 0.625L24.0461 2.24521L28.1551 6.35417H0.458008V8.64583H28.1551L24.0461 12.7548L25.6663 14.375Z"/>
    </symbol>
    <symbol id="behance" viewBox="0 0 21 14">
      <title>Behance Icon</title>
      <path d="M15.669 13.268C15.0201 13.2761 14.3755 13.1617 13.769 12.931C13.2256 12.7197 12.7346 12.3928 12.33 11.973C11.9314 11.544 11.6236 11.0389 11.425 10.488C11.2069 9.87858 11.0989 9.23524 11.106 8.58801C11.1014 7.95192 11.2125 7.3203 11.434 6.72401C11.6405 6.16798 11.9583 5.65994 12.368 5.23101C12.7788 4.80741 13.2696 4.46955 13.812 4.23701C14.3995 3.98849 15.0322 3.86488 15.67 3.87401C16.3555 3.85936 17.0343 4.0103 17.649 4.31401C18.1977 4.59543 18.6735 5.00039 19.039 5.49701C19.4077 6.00425 19.6737 6.5787 19.822 7.18801C19.9838 7.83575 20.0416 8.50512 19.993 9.17101H13.562C13.5364 9.80349 13.7532 10.4219 14.168 10.9C14.6038 11.2823 15.1736 11.4758 15.752 11.438C16.2063 11.4486 16.6527 11.3183 17.03 11.065C17.3295 10.8822 17.5594 10.6044 17.683 10.276H19.838C19.5938 11.2047 19.0319 12.0185 18.25 12.576C17.4761 13.0547 16.5786 13.2953 15.669 13.268ZM15.6 5.72401C15.264 5.71139 14.9299 5.77999 14.626 5.92401C14.3884 6.04383 14.1775 6.21051 14.006 6.41401C13.8551 6.59888 13.7435 6.81256 13.678 7.04201C13.6203 7.23317 13.583 7.42995 13.567 7.62901H17.549C17.5203 7.11045 17.3226 6.61556 16.986 6.22001C16.6135 5.86838 16.111 5.68853 15.6 5.72401ZM5.97 13.036H0V0.731006H5.8C6.3373 0.726302 6.8736 0.778256 7.4 0.886006C7.84587 0.973051 8.27068 1.14556 8.651 1.39401C8.99449 1.63244 9.27016 1.956 9.451 2.33301C9.65065 2.78714 9.74632 3.28015 9.731 3.77601C9.75266 4.32461 9.60725 4.86686 9.314 5.33101C8.9931 5.77409 8.55942 6.12318 8.058 6.34201C8.73933 6.51228 9.33817 6.91871 9.748 7.48901C10.1287 8.07583 10.3213 8.76484 10.3 9.46401C10.3145 10.0232 10.1916 10.5774 9.942 11.078C9.71169 11.522 9.37755 11.9038 8.968 12.191C8.54341 12.4864 8.06922 12.7032 7.568 12.831C7.04477 12.9684 6.50598 13.0377 5.965 13.037L5.97 13.036ZM2.71 7.55301V10.943H5.6C5.85541 10.9458 6.11033 10.9199 6.36 10.866C6.58857 10.8219 6.80611 10.7328 7 10.604C7.18672 10.4812 7.33834 10.312 7.44 10.113C7.5579 9.86336 7.61349 9.58885 7.602 9.31301C7.65047 8.80112 7.45215 8.29677 7.068 7.95501C6.65353 7.66969 6.15651 7.52909 5.654 7.55501L2.71 7.55301ZM2.71 2.82801V5.70301H5.452C5.87616 5.71971 6.29433 5.59867 6.644 5.35801C6.97362 5.08426 7.14719 4.66568 7.108 4.23901C7.11645 3.99409 7.06423 3.75087 6.956 3.53101C6.85824 3.35327 6.71413 3.20535 6.539 3.10301C6.35458 2.99364 6.15091 2.92066 5.939 2.88801C5.70824 2.84474 5.47377 2.82431 5.239 2.82701L2.71 2.82801ZM18.051 2.77201H13.061V1.55701H18.051V2.77201Z" />
    </symbol>
    <symbol id="dribbble" viewBox="0 0 24 24">
      <title>Dribbble Icon</title>
      <path d="M12.0002 23.6666C5.55684 23.6666 0.333496 18.4432 0.333496 11.9999C0.333496 5.5566 5.55684 0.333252 12.0002 0.333252C18.4435 0.333252 23.6668 5.5566 23.6668 11.9999C23.6598 18.4403 18.4406 23.6595 12.0002 23.6666ZM6.30683 19.6358L6.301 19.6474C8.96455 21.6428 12.4777 22.0999 15.5632 20.8526C15.1209 18.4741 14.4653 16.1403 13.6043 13.8794C11.6268 14.5689 9.81874 15.6718 8.30066 17.1146C7.55251 17.823 6.90483 18.6304 6.37566 19.5144L6.3675 19.5273V19.5156L6.3465 19.5564L6.3325 19.5798L6.32433 19.5949L6.3045 19.6369L6.30683 19.6358ZM17.5757 13.2191C17.0013 13.2199 16.4276 13.2589 15.8583 13.3358C16.6017 15.413 17.1867 17.5436 17.6083 19.7093C19.591 18.28 20.9386 16.1344 21.365 13.7278C20.1307 13.3872 18.8561 13.2149 17.5757 13.2156V13.2191ZM2.45333 11.9474V12.0128C2.45546 14.2604 3.25077 16.4353 4.69916 18.1541C6.57549 15.2555 9.35098 13.0526 12.5998 11.8833L12.7387 11.8436C12.5322 11.3874 12.3385 10.9803 12.1448 10.5999C9.03208 11.4727 5.81672 11.9259 2.584 11.9474H2.45333ZM17.2105 11.2404C18.6581 11.2458 20.1025 11.3777 21.5272 11.6348C21.4529 9.66123 20.7626 7.76049 19.5532 6.19925C18.1418 7.77768 16.385 9.00898 14.4198 9.79725L14.4537 9.78325L14.4175 9.79842C14.6263 10.2336 14.8095 10.6408 14.9623 11.0036C14.9985 11.0899 15.0288 11.1646 15.0568 11.2369L15.1047 11.3536C15.8039 11.276 16.507 11.2382 17.2105 11.2404ZM7.77333 3.45642C5.23619 4.70869 3.38571 7.02243 2.72166 9.77275C5.44044 9.73075 8.14616 9.3872 10.7892 8.74842H10.8218L10.8335 8.73325L10.8965 8.71809H10.9035L10.9502 8.70875H10.9688L10.9933 8.70175L11.04 8.69009L11.0668 8.67842L11.0925 8.67142H11.1158C9.56066 5.93325 7.95066 3.70142 7.77216 3.45642H7.77333ZM12.0002 2.47872C11.3615 2.47714 10.7242 2.53771 10.0973 2.65959C11.3195 4.3531 12.4411 6.11703 13.4562 7.94225C15.274 7.29481 16.8952 6.19175 18.1648 4.73859C16.4413 3.28095 14.2574 2.4804 12.0002 2.47872Z"/>
    </symbol>
    <symbol id="instagram" viewBox="0 0 22 22">
      <title>Instagram Icon</title>
      <path d="M11.0024 21.5479C8.13244 21.5479 7.79411 21.5327 6.67411 21.4837C5.80071 21.455 4.93861 21.2774 4.12494 20.9587C2.71714 20.4108 1.60394 19.2972 1.05661 17.8892C0.750132 17.0726 0.584829 16.2098 0.567775 15.3377C0.502441 14.22 0.502441 13.8537 0.502441 11.0059C0.502441 8.12769 0.517608 7.79169 0.567775 6.67753C0.585202 5.80663 0.750499 4.94503 1.05661 4.12953C1.60334 2.71964 2.71835 1.60506 4.12844 1.05886C4.94353 0.751095 5.80535 0.585361 6.67644 0.568859C7.79061 0.505859 8.15694 0.505859 11.0024 0.505859C13.8958 0.505859 14.2283 0.521026 15.3308 0.568859C16.2041 0.585504 17.0682 0.751221 17.8858 1.05886C19.2955 1.60568 20.4103 2.72005 20.9576 4.12953C21.2693 4.95692 21.4354 5.83199 21.4488 6.71603C21.5141 7.83369 21.5141 8.19886 21.5141 11.0455C21.5141 13.8922 21.4978 14.2655 21.4488 15.3704C21.4314 16.2433 21.2657 17.1068 20.9588 17.9242C20.41 19.3332 19.2952 20.4472 17.8858 20.9949C17.0694 21.3007 16.2071 21.466 15.3354 21.4837C14.2213 21.5479 13.8561 21.5479 11.0024 21.5479ZM10.9628 2.35269C8.10911 2.35269 7.81278 2.36669 6.69861 2.41686C6.03359 2.42567 5.375 2.54839 4.75144 2.77969C3.83065 3.13204 3.10204 3.85768 2.74594 4.77703C2.51286 5.40737 2.39012 6.07317 2.38311 6.74519C2.32127 7.87569 2.32127 8.17203 2.32127 11.0059C2.32127 13.8059 2.33177 14.1454 2.38311 15.2689C2.39355 15.9341 2.51622 16.5928 2.74594 17.2172C3.10256 18.1359 3.83105 18.861 4.75144 19.2134C5.37458 19.4462 6.03343 19.569 6.69861 19.5762C7.82794 19.6415 8.12544 19.6415 10.9628 19.6415C13.8246 19.6415 14.1209 19.6275 15.2258 19.5762C15.8912 19.5681 16.5503 19.4454 17.1741 19.2134C18.0893 18.858 18.8132 18.1345 19.1691 17.2195C19.4017 16.5886 19.5245 15.9226 19.5319 15.2502H19.5448C19.5949 14.1349 19.5949 13.8374 19.5949 10.9872C19.5949 8.13703 19.5821 7.83719 19.5319 6.72303C19.5215 6.05855 19.3988 5.40062 19.1691 4.77703C18.814 3.86069 18.09 3.13587 17.1741 2.77969C16.5505 2.54722 15.8913 2.42447 15.2258 2.41686C14.0976 2.35269 13.8024 2.35269 10.9628 2.35269ZM11.0024 16.3947C8.82076 16.3961 6.8531 15.083 6.01711 13.0679C5.18113 11.0527 5.6415 8.73241 7.18351 7.18906C8.72552 5.64572 11.0454 5.18334 13.0613 6.01758C15.0772 6.85182 16.392 8.81835 16.3924 11C16.3892 13.9763 13.9787 16.3889 11.0024 16.3947ZM11.0024 7.49769C9.06945 7.49769 7.50244 9.0647 7.50244 10.9977C7.50244 12.9307 9.06945 14.4977 11.0024 14.4977C12.9354 14.4977 14.5024 12.9307 14.5024 10.9977C14.498 9.06656 12.9336 7.50218 11.0024 7.49769ZM16.6024 6.66586C15.9088 6.66328 15.3482 6.09955 15.3494 5.40587C15.3507 4.71219 15.9134 4.15053 16.6071 4.15053C17.3008 4.15053 17.8635 4.71218 17.8648 5.40586C17.8651 5.74053 17.7321 6.06155 17.4952 6.29798C17.2584 6.53441 16.9371 6.66679 16.6024 6.66586Z"/>
    </symbol>
    <symbol id="linkedin" viewBox="0 0 18 18">
      <title>Linkedin Icon</title>
      <path d="M10 18H6V6H10V8C10.8526 6.91525 12.1456 6.26857 13.525 6.237C16.0056 6.25077 18.0072 8.26938 18 10.75V18H14V11.25C13.84 10.1326 12.8818 9.30358 11.753 9.306C11.2593 9.32161 10.7932 9.53778 10.4624 9.90462C10.1316 10.2715 9.96464 10.7573 10 11.25V18ZM4 18H0V6H4V18ZM2 4C0.89543 4 0 3.10457 0 2C0 0.89543 0.89543 0 2 0C3.10457 0 4 0.89543 4 2C4 2.53043 3.78929 3.03914 3.41421 3.41421C3.03914 3.78929 2.53043 4 2 4Z"/>
    </symbol>
    <symbol id="mail" viewBox="0 0 24 20">
      <title>Mail Icon</title>
      <path d="M21.3333 19.3333H2.66659C1.37792 19.3333 0.333252 18.2886 0.333252 17V2.89846C0.387628 1.6496 1.41654 0.665445 2.66659 0.666627H21.3333C22.6219 0.666627 23.6666 1.7113 23.6666 2.99996V17C23.6666 18.2886 22.6219 19.3333 21.3333 19.3333ZM2.66659 5.17929V17H21.3333V5.17929L11.9999 11.4L2.66659 5.17929ZM3.59992 2.99996L11.9999 8.59996L20.3999 2.99996H3.59992Z"/>
    </symbol>
    <symbol id="location" viewBox="0 0 28 28">
      <title>Location Icon</title>
      <path d="M13.9999 24.5001C12.5263 23.2431 11.1605 21.8652 9.91659 20.3806C8.04992 18.1511 5.83325 14.8307 5.83325 11.6667C5.8316 8.3622 7.82154 5.38235 10.8745 4.11769C13.9275 2.85303 17.4417 3.55284 19.7773 5.89056C21.3131 7.4196 22.1735 9.49951 22.1666 11.6667C22.1666 14.8307 19.9499 18.1511 18.0833 20.3806C16.8394 21.8652 15.4735 23.2431 13.9999 24.5001ZM13.9999 5.83339C10.7799 5.83725 8.17044 8.44666 8.16659 11.6667C8.16659 13.0271 8.78142 15.3826 11.7074 18.8837C12.4286 19.7448 13.1938 20.568 13.9999 21.3501C14.8061 20.5689 15.5717 19.7469 16.2936 18.8872C19.2184 15.3814 19.8333 13.0259 19.8333 11.6667C19.8294 8.44666 17.22 5.83725 13.9999 5.83339ZM13.9999 15.1667C12.0669 15.1667 10.4999 13.5997 10.4999 11.6667C10.4999 9.73373 12.0669 8.16673 13.9999 8.16673C15.9329 8.16673 17.4999 9.73373 17.4999 11.6667C17.4999 12.595 17.1312 13.4852 16.4748 14.1416C15.8184 14.798 14.9282 15.1667 13.9999 15.1667Z"/>
    </symbol>
  </defs>
</svg>