<svg width="21" height="14" viewBox="0 0 21 14" fill="none" xmlns="http://www.w3.org/2000/svg">
<path d="M15.669 13.268C15.0201 13.2761 14.3755 13.1617 13.769 12.931C13.2256 12.7197 12.7346 12.3928 12.33 11.973C11.9314 11.544 11.6236 11.0389 11.425 10.488C11.2069 9.87858 11.0989 9.23524 11.106 8.58801C11.1014 7.95192 11.2125 7.3203 11.434 6.72401C11.6405 6.16798 11.9583 5.65994 12.368 5.23101C12.7788 4.80741 13.2696 4.46955 13.812 4.23701C14.3995 3.98849 15.0322 3.86488 15.67 3.87401C16.3555 3.85936 17.0343 4.0103 17.649 4.31401C18.1977 4.59543 18.6735 5.00039 19.039 5.49701C19.4077 6.00425 19.6737 6.5787 19.822 7.18801C19.9838 7.83575 20.0416 8.50512 19.993 9.17101H13.562C13.5364 9.80349 13.7532 10.4219 14.168 10.9C14.6038 11.2823 15.1736 11.4758 15.752 11.438C16.2063 11.4486 16.6527 11.3183 17.03 11.065C17.3295 10.8822 17.5594 10.6044 17.683 10.276H19.838C19.5938 11.2047 19.0319 12.0185 18.25 12.576C17.4761 13.0547 16.5786 13.2953 15.669 13.268ZM15.6 5.72401C15.264 5.71139 14.9299 5.77999 14.626 5.92401C14.3884 6.04383 14.1775 6.21051 14.006 6.41401C13.8551 6.59888 13.7435 6.81256 13.678 7.04201C13.6203 7.23317 13.583 7.42995 13.567 7.62901H17.549C17.5203 7.11045 17.3226 6.61556 16.986 6.22001C16.6135 5.86838 16.111 5.68853 15.6 5.72401ZM5.97 13.036H0V0.731006H5.8C6.3373 0.726302 6.8736 0.778256 7.4 0.886006C7.84587 0.973051 8.27068 1.14556 8.651 1.39401C8.99449 1.63244 9.27016 1.956 9.451 2.33301C9.65065 2.78714 9.74632 3.28015 9.731 3.77601C9.75266 4.32461 9.60725 4.86686 9.314 5.33101C8.9931 5.77409 8.55942 6.12318 8.058 6.34201C8.73933 6.51228 9.33817 6.91871 9.748 7.48901C10.1287 8.07583 10.3213 8.76484 10.3 9.46401C10.3145 10.0232 10.1916 10.5774 9.942 11.078C9.71169 11.522 9.37755 11.9038 8.968 12.191C8.54341 12.4864 8.06922 12.7032 7.568 12.831C7.04477 12.9684 6.50598 13.0377 5.965 13.037L5.97 13.036ZM2.71 7.55301V10.943H5.6C5.85541 10.9458 6.11033 10.9199 6.36 10.866C6.58857 10.8219 6.80611 10.7328 7 10.604C7.18672 10.4812 7.33834 10.312 7.44 10.113C7.5579 9.86336 7.61349 9.58885 7.602 9.31301C7.65047 8.80112 7.45215 8.29677 7.068 7.95501C6.65353 7.66969 6.15651 7.52909 5.654 7.55501L2.71 7.55301ZM2.71 2.82801V5.70301H5.452C5.87616 5.71971 6.29433 5.59867 6.644 5.35801C6.97362 5.08426 7.14719 4.66568 7.108 4.23901C7.11645 3.99409 7.06423 3.75087 6.956 3.53101C6.85824 3.35327 6.71413 3.20535 6.539 3.10301C6.35458 2.99364 6.15091 2.92066 5.939 2.88801C5.70824 2.84474 5.47377 2.82431 5.239 2.82701L2.71 2.82801ZM18.051 2.77201H13.061V1.55701H18.051V2.77201Z" fill="#0D0D0D"/>
</svg>
