<svg width="24" height="24" viewBox="0 0 24 24" fill="none" xmlns="http://www.w3.org/2000/svg">
<path d="M12.0002 23.6666C5.55684 23.6666 0.333496 18.4432 0.333496 11.9999C0.333496 5.5566 5.55684 0.333252 12.0002 0.333252C18.4435 0.333252 23.6668 5.5566 23.6668 11.9999C23.6598 18.4403 18.4406 23.6595 12.0002 23.6666ZM6.30683 19.6358L6.301 19.6474C8.96455 21.6428 12.4777 22.0999 15.5632 20.8526C15.1209 18.4741 14.4653 16.1403 13.6043 13.8794C11.6268 14.5689 9.81874 15.6718 8.30066 17.1146C7.55251 17.823 6.90483 18.6304 6.37566 19.5144L6.3675 19.5273V19.5156L6.3465 19.5564L6.3325 19.5798L6.32433 19.5949L6.3045 19.6369L6.30683 19.6358ZM17.5757 13.2191C17.0013 13.2199 16.4276 13.2589 15.8583 13.3358C16.6017 15.413 17.1867 17.5436 17.6083 19.7093C19.591 18.28 20.9386 16.1344 21.365 13.7278C20.1307 13.3872 18.8561 13.2149 17.5757 13.2156V13.2191ZM2.45333 11.9474V12.0128C2.45546 14.2604 3.25077 16.4353 4.69916 18.1541C6.57549 15.2555 9.35098 13.0526 12.5998 11.8833L12.7387 11.8436C12.5322 11.3874 12.3385 10.9803 12.1448 10.5999C9.03208 11.4727 5.81672 11.9259 2.584 11.9474H2.45333ZM17.2105 11.2404C18.6581 11.2458 20.1025 11.3777 21.5272 11.6348C21.4529 9.66123 20.7626 7.76049 19.5532 6.19925C18.1418 7.77768 16.385 9.00898 14.4198 9.79725L14.4537 9.78325L14.4175 9.79842C14.6263 10.2336 14.8095 10.6408 14.9623 11.0036C14.9985 11.0899 15.0288 11.1646 15.0568 11.2369L15.1047 11.3536C15.8039 11.276 16.507 11.2382 17.2105 11.2404ZM7.77333 3.45642C5.23619 4.70869 3.38571 7.02243 2.72166 9.77275C5.44044 9.73075 8.14616 9.3872 10.7892 8.74842H10.8218L10.8335 8.73325L10.8965 8.71809H10.9035L10.9502 8.70875H10.9688L10.9933 8.70175L11.04 8.69009L11.0668 8.67842L11.0925 8.67142H11.1158C9.56066 5.93325 7.95066 3.70142 7.77216 3.45642H7.77333ZM12.0002 2.47872C11.3615 2.47714 10.7242 2.53771 10.0973 2.65959C11.3195 4.3531 12.4411 6.11703 13.4562 7.94225C15.274 7.29481 16.8952 6.19175 18.1648 4.73859C16.4413 3.28095 14.2574 2.4804 12.0002 2.47872Z" fill="#0D0D0D"/>
</svg>
